<svg width="415" height="34" fill="none" xmlns="http://www.w3.org/2000/svg"><path d="m163.193 32.435 15.273-15.44.449-.455-.449-.454L163.193.646h22.177l15.722 15.894-15.722 15.895h-22.177Z" stroke="#922630"/><path opacity=".8" d="m129.302 32.435 15.273-15.44.45-.455-.45-.454L129.302.646h22.177l15.723 15.894-15.723 15.895h-22.177Z" stroke="#922630"/><path opacity=".7" d="M117.858 0H93.863l16.362 16.54-16.362 16.54h23.995l16.362-16.54L117.858 0Z" fill="#922630"/><path opacity=".5" d="m73.678 16.953.445-.453-.445-.453L58.541.647h21.97L96.095 16.5 80.512 32.354h-21.97l15.136-15.401Z" stroke="#922630"/><path opacity=".3" d="m39.678 16.953.445-.453-.445-.453L24.541.647h21.97L62.095 16.5 46.512 32.354h-21.97l15.136-15.401Z" stroke="#922630"/><path d="M12.783 0H-11L5.217 16.5-11 33h23.783L29 16.5 12.783 0Z" fill="#922630"/><path d="M237.46 24.46c.16 0 .32.033.48.1.16.053.313.153.46.3l2.68 2.82a11.194 11.194 0 0 1-4.42 3.48c-1.76.773-3.847 1.16-6.26 1.16-2.213 0-4.2-.373-5.96-1.12-1.747-.76-3.233-1.8-4.46-3.12-1.213-1.333-2.147-2.907-2.8-4.72-.653-1.827-.98-3.807-.98-5.94 0-2.173.353-4.167 1.06-5.98.707-1.827 1.7-3.4 2.98-4.72 1.28-1.32 2.813-2.347 4.6-3.08 1.787-.733 3.753-1.1 5.9-1.1 1.093 0 2.12.1 3.08.3.973.187 1.88.453 2.72.8a12.174 12.174 0 0 1 4.2 2.78l-2.28 3.06a3.21 3.21 0 0 1-.52.52c-.2.147-.48.22-.84.22-.24 0-.467-.053-.68-.16a9.293 9.293 0 0 1-.68-.38c-.24-.16-.507-.327-.8-.5a4.847 4.847 0 0 0-1.02-.5 7.476 7.476 0 0 0-1.38-.4c-.52-.107-1.133-.16-1.84-.16-1.12 0-2.147.207-3.08.62a6.758 6.758 0 0 0-2.4 1.82c-.667.787-1.187 1.76-1.56 2.92-.36 1.147-.54 2.46-.54 3.94 0 1.493.2 2.82.6 3.98.413 1.16.967 2.14 1.66 2.94a7.204 7.204 0 0 0 2.46 1.8c.933.413 1.933.62 3 .62.613 0 1.173-.027 1.68-.08.507-.067.98-.167 1.42-.3.44-.147.853-.333 1.24-.56.387-.24.78-.54 1.18-.9.16-.133.333-.24.52-.32.187-.093.38-.14.58-.14Zm14.981-13.52c1.574 0 3.007.247 4.3.74 1.294.493 2.4 1.2 3.32 2.12.934.92 1.654 2.04 2.16 3.36.52 1.307.78 2.78.78 4.42 0 1.653-.26 3.147-.78 4.48-.506 1.32-1.226 2.447-2.16 3.38-.92.92-2.026 1.633-3.32 2.14-1.293.493-2.726.74-4.3.74-1.586 0-3.033-.247-4.34-.74a9.996 9.996 0 0 1-3.36-2.14c-.933-.933-1.66-2.06-2.18-3.38-.506-1.333-.76-2.827-.76-4.48 0-1.64.254-3.113.76-4.42.52-1.32 1.247-2.44 2.18-3.36a9.746 9.746 0 0 1 3.36-2.12c1.307-.493 2.754-.74 4.34-.74Zm0 16.78c1.427 0 2.474-.5 3.14-1.5.68-1.013 1.02-2.547 1.02-4.6 0-2.053-.34-3.58-1.02-4.58-.666-1-1.713-1.5-3.14-1.5-1.466 0-2.54.5-3.22 1.5-.68 1-1.02 2.527-1.02 4.58s.34 3.587 1.02 4.6c.68 1 1.754 1.5 3.22 1.5Zm19.402-14.22c.4-.373.814-.72 1.24-1.04.427-.32.88-.587 1.36-.8.494-.227 1.02-.4 1.58-.52a8.212 8.212 0 0 1 1.86-.2c1.134 0 2.134.2 3 .6.88.387 1.62.933 2.22 1.64.6.693 1.054 1.527 1.36 2.5.307.96.46 2.007.46 3.14V32h-6.2V18.82c0-1.013-.233-1.8-.7-2.36-.466-.573-1.153-.86-2.06-.86-.68 0-1.32.147-1.92.44-.586.28-1.16.667-1.72 1.16V32h-6.2V11.26h3.84c.774 0 1.28.347 1.52 1.04l.36 1.2Zm26.653-2.56c1.573 0 3.007.247 4.3.74 1.293.493 2.4 1.2 3.32 2.12.933.92 1.653 2.04 2.16 3.36.52 1.307.78 2.78.78 4.42 0 1.653-.26 3.147-.78 4.48-.507 1.32-1.227 2.447-2.16 3.38-.92.92-2.027 1.633-3.32 2.14-1.293.493-2.727.74-4.3.74-1.587 0-3.033-.247-4.34-.74a9.996 9.996 0 0 1-3.36-2.14c-.933-.933-1.66-2.06-2.18-3.38-.507-1.333-.76-2.827-.76-4.48 0-1.64.253-3.113.76-4.42.52-1.32 1.247-2.44 2.18-3.36a9.746 9.746 0 0 1 3.36-2.12c1.307-.493 2.753-.74 4.34-.74Zm0 16.78c1.427 0 2.473-.5 3.14-1.5.68-1.013 1.02-2.547 1.02-4.6 0-2.053-.34-3.58-1.02-4.58-.667-1-1.713-1.5-3.14-1.5-1.467 0-2.54.5-3.22 1.5-.68 1-1.02 2.527-1.02 4.58s.34 3.587 1.02 4.6c.68 1 1.753 1.5 3.22 1.5Zm7.92-25.18-5.2 5.26c-.307.307-.6.527-.88.66-.28.12-.653.18-1.12.18h-3.72l2.72-4.9c.227-.387.493-.68.8-.88.307-.213.773-.32 1.4-.32h6Zm21.002 13.64a3.454 3.454 0 0 1-.54.54c-.173.133-.42.2-.74.2-.307 0-.587-.073-.84-.22-.24-.147-.513-.307-.82-.48a5.842 5.842 0 0 0-1.08-.5c-.413-.147-.927-.22-1.54-.22-.76 0-1.42.14-1.98.42-.547.28-1 .68-1.36 1.2-.36.52-.627 1.16-.8 1.92-.173.747-.26 1.593-.26 2.54 0 1.987.38 3.513 1.14 4.58.773 1.067 1.833 1.6 3.18 1.6.72 0 1.287-.087 1.7-.26a5.754 5.754 0 0 0 1.08-.6l.8-.62c.253-.187.567-.28.94-.28.493 0 .867.18 1.12.54l1.8 2.22c-.64.733-1.313 1.333-2.02 1.8a10.7 10.7 0 0 1-2.18 1.08 10.93 10.93 0 0 1-2.22.52c-.747.107-1.473.16-2.18.16-1.267 0-2.48-.24-3.64-.72a9.087 9.087 0 0 1-3.04-2.08c-.867-.92-1.56-2.047-2.08-3.38-.507-1.333-.76-2.853-.76-4.56 0-1.493.22-2.887.66-4.18.453-1.307 1.113-2.433 1.98-3.38.88-.96 1.96-1.713 3.24-2.26 1.293-.547 2.787-.82 4.48-.82 1.627 0 3.053.26 4.28.78a10.27 10.27 0 0 1 3.32 2.28l-1.64 2.18Zm16.762 2.96c0-.493-.067-.973-.2-1.44a3.202 3.202 0 0 0-.62-1.24 3.023 3.023 0 0 0-1.12-.9c-.467-.227-1.034-.34-1.7-.34-1.174 0-2.094.34-2.76 1.02-.667.667-1.107 1.633-1.32 2.9h7.72Zm-7.8 3.6c.2 1.733.726 2.993 1.58 3.78.853.773 1.953 1.16 3.3 1.16.72 0 1.34-.087 1.86-.26.52-.173.98-.367 1.38-.58l1.12-.58c.346-.173.706-.26 1.08-.26.493 0 .866.18 1.12.54l1.8 2.22a9.353 9.353 0 0 1-2.08 1.8c-.734.453-1.494.813-2.28 1.08-.774.253-1.554.427-2.34.52-.774.107-1.514.16-2.22.16-1.454 0-2.82-.233-4.1-.7a9.635 9.635 0 0 1-3.34-2.12c-.947-.933-1.7-2.093-2.26-3.48-.547-1.387-.82-3-.82-4.84 0-1.387.233-2.7.7-3.94a9.918 9.918 0 0 1 2.04-3.26c.893-.933 1.966-1.673 3.22-2.22 1.266-.547 2.693-.82 4.28-.82 1.373 0 2.626.213 3.76.64 1.146.427 2.126 1.047 2.94 1.86.826.813 1.466 1.813 1.92 3 .466 1.173.7 2.507.7 4 0 .467-.02.847-.06 1.14-.04.293-.114.527-.22.7a.838.838 0 0 1-.44.36c-.174.067-.4.1-.68.1h-11.96Zm22.182-9.24c.4-.373.814-.72 1.24-1.04.427-.32.88-.587 1.36-.8.494-.227 1.02-.4 1.58-.52a8.212 8.212 0 0 1 1.86-.2c1.134 0 2.134.2 3 .6.88.387 1.62.933 2.22 1.64.6.693 1.054 1.527 1.36 2.5.307.96.46 2.007.46 3.14V32h-6.2V18.82c0-1.013-.233-1.8-.7-2.36-.466-.573-1.153-.86-2.06-.86-.68 0-1.32.147-1.92.44-.586.28-1.16.667-1.72 1.16V32h-6.2V11.26h3.84c.774 0 1.28.347 1.52 1.04l.36 1.2Zm26.653-2.56c1.573 0 3.006.247 4.3.74 1.293.493 2.4 1.2 3.32 2.12.933.92 1.653 2.04 2.16 3.36.52 1.307.78 2.78.78 4.42 0 1.653-.26 3.147-.78 4.48-.507 1.32-1.227 2.447-2.16 3.38-.92.92-2.027 1.633-3.32 2.14-1.294.493-2.727.74-4.3.74-1.587 0-3.034-.247-4.34-.74a9.976 9.976 0 0 1-3.36-2.14c-.934-.933-1.66-2.06-2.18-3.38-.507-1.333-.76-2.827-.76-4.48 0-1.64.253-3.113.76-4.42.52-1.32 1.246-2.44 2.18-3.36a9.727 9.727 0 0 1 3.36-2.12c1.306-.493 2.753-.74 4.34-.74Zm0 16.78c1.426 0 2.473-.5 3.14-1.5.68-1.013 1.02-2.547 1.02-4.6 0-2.053-.34-3.58-1.02-4.58-.667-1-1.714-1.5-3.14-1.5-1.467 0-2.54.5-3.22 1.5-.68 1-1.02 2.527-1.02 4.58s.34 3.587 1.02 4.6c.68 1 1.753 1.5 3.22 1.5Zm26.862-11.92c-.16.253-.333.433-.52.54-.173.107-.4.16-.68.16-.293 0-.587-.06-.88-.18a39.012 39.012 0 0 0-.96-.42 8.629 8.629 0 0 0-1.14-.4 4.894 4.894 0 0 0-1.46-.2c-.787 0-1.393.153-1.82.46-.413.293-.62.707-.62 1.24 0 .387.133.707.4.96.28.253.647.48 1.1.68.453.187.967.367 1.54.54.573.173 1.16.367 1.76.58.6.213 1.187.467 1.76.76.573.28 1.087.633 1.54 1.06.453.413.813.92 1.08 1.52.28.6.42 1.32.42 2.16 0 1.027-.187 1.973-.56 2.84a5.98 5.98 0 0 1-1.68 2.24c-.733.627-1.647 1.113-2.74 1.46-1.08.347-2.327.52-3.74.52-.707 0-1.413-.067-2.12-.2a15.062 15.062 0 0 1-2.06-.54 11.922 11.922 0 0 1-1.82-.8c-.56-.32-1.04-.66-1.44-1.02l1.44-2.28c.16-.267.36-.473.6-.62.253-.16.573-.24.96-.24.36 0 .68.08.96.24.293.16.607.333.94.52.333.187.72.36 1.16.52.453.16 1.02.24 1.7.24.48 0 .887-.047 1.22-.14.333-.107.6-.247.8-.42.2-.173.347-.367.44-.58.093-.213.14-.433.14-.66 0-.413-.14-.753-.42-1.02-.28-.267-.647-.493-1.1-.68-.453-.2-.973-.38-1.56-.54a38.747 38.747 0 0 1-1.76-.58c-.6-.213-1.193-.467-1.78-.76a6.502 6.502 0 0 1-1.54-1.14 5.426 5.426 0 0 1-1.1-1.7c-.28-.667-.42-1.473-.42-2.42 0-.88.167-1.713.5-2.5.347-.8.86-1.5 1.54-2.1.68-.6 1.533-1.073 2.56-1.42 1.027-.36 2.227-.54 3.6-.54.747 0 1.467.067 2.16.2.707.133 1.367.32 1.98.56a9.06 9.06 0 0 1 1.68.86c.507.32.953.673 1.34 1.06l-1.4 2.18Z" fill="#fff"/></svg>