<svg width="139" height="107" fill="none" xmlns="http://www.w3.org/2000/svg"><path d="m31.747 65.33-1.43 2.58-.28-.15c.113-.3.17-.488.17-.558 0-.201-.247-.416-.74-.649a9.97 9.97 0 0 0-4.264-.94c-1.234 0-2.31.23-3.223.689-.44.226-.788.517-1.046.877-.259.36-.386.739-.386 1.135 0 .331.099.645.3.942.202.298.463.518.792.663.36.167.786.28 1.276.342.491.063 1.288.11 2.398.145 1.534.048 2.632.118 3.293.215.66.096 1.206.263 1.631.504 1.135.633 1.702 1.593 1.702 2.884 0 1.29-.513 2.241-1.54 3.025-1.14.878-2.712 1.32-4.715 1.32-1.154 0-2.162-.117-3.021-.352-.86-.232-1.89-.662-3.084-1.287-.334-.153-.53-.23-.59-.23-.099 0-.258.12-.47.36l-.27-.17 1.5-2.508.282.161c-.128.266-.19.448-.19.538 0 .213.425.544 1.282.988.766.4 1.506.688 2.215.863.71.176 1.484.264 2.318.264 1.688 0 2.97-.368 3.843-1.11.582-.492.871-1.078.871-1.758 0-.891-.496-1.508-1.492-1.848a4.082 4.082 0 0 0-.995-.215c-.344-.031-1.32-.074-2.928-.136-1.146-.045-2.045-.133-2.698-.26a5.782 5.782 0 0 1-1.736-.62 2.964 2.964 0 0 1-1.126-1.118 3.065 3.065 0 0 1-.414-1.568c0-.965.36-1.795 1.08-2.485.534-.507 1.271-.903 2.213-1.192.942-.289 1.972-.436 3.092-.436.914 0 1.762.09 2.548.272.783.181 1.668.493 2.658.934.221.093.357.142.411.142.12 0 .284-.133.49-.402l.282.141-.009.009ZM36.47 71.982v5.083c0 .207.046.363.14.47.093.108.26.193.499.26v.32h-2.851v-.32c.24-.067.405-.152.5-.26.093-.107.138-.263.138-.47V65.523c0-.2-.045-.354-.139-.458-.093-.108-.26-.193-.5-.26v-.32h7.186c1.007 0 1.793.053 2.352.158.562.107 1.06.3 1.5.58.46.28.832.662 1.11 1.15.315.545.47 1.157.47 1.836 0 .931-.286 1.732-.859 2.397-.44.513-.998.872-1.676 1.073-.678.204-1.643.306-2.897.306h-4.972v-.003Zm0-1.3h5.124c.76 0 1.324-.03 1.696-.09.372-.06.7-.175.996-.35.68-.4 1.02-1.068 1.02-2.007 0-.94-.34-1.62-1.02-2.018a2.841 2.841 0 0 0-.99-.349c-.366-.059-.934-.09-1.702-.09H36.47v4.905ZM57.448 74.289h-7.305l-1.203 2.587c-.113.246-.17.418-.17.518 0 .2.199.334.593.399v.32h-3.047v-.32c.273-.048.483-.148.627-.3.145-.153.332-.487.565-1l5.004-10.772c.119-.26.178-.436.178-.53 0-.172-.164-.302-.49-.39v-.32h3.322v.32c-.327.108-.491.246-.491.42 0 .073.06.24.179.497l4.794 10.385c.354.767.587 1.214.7 1.347.114.133.36.246.74.34v.32h-3.242v-.32c.389-.054.582-.201.582-.439 0-.107-.074-.311-.221-.62l-1.118-2.445.003.003Zm-.579-1.297-3.075-6.733-3.072 6.733h6.147ZM65.085 71.982v4.953c0 .272.042.467.13.583.088.116.258.207.51.275v.32h-2.85v-.32c.252-.068.423-.156.51-.27.086-.112.131-.308.131-.588V65.662c0-.28-.042-.479-.13-.595-.088-.116-.259-.203-.511-.263v-.32h7.495c1.027 0 1.838.054 2.436.165.596.11 1.115.302 1.558.574a3.2 3.2 0 0 1 1.1 1.15c.321.551.48 1.177.48 1.867 0 1.039-.346 1.888-1.036 2.545-.689.656-1.64 1.03-2.848 1.123l3.472 5.384a1 1 0 0 0 .9.498v.32h-3.163v-.32c.326-.054.49-.147.49-.28 0-.065-.116-.283-.348-.648l-3.104-4.886h-5.222v.006Zm0-1.3h5.534c.755 0 1.322-.03 1.708-.095a3.03 3.03 0 0 0 1.016-.346c.686-.399 1.03-1.067 1.03-2.006 0-.94-.355-1.62-1.062-2.018a3.147 3.147 0 0 0-1.046-.349c-.383-.059-.98-.09-1.787-.09h-5.393v4.905ZM84.947 65.784v11.151c0 .272.042.467.13.583.085.116.258.21.511.275v.32h-2.85v-.32c.252-.068.422-.156.51-.269.085-.113.13-.308.13-.589V65.784h-4.624c-.28 0-.48.042-.595.127-.117.085-.205.255-.264.512h-.32v-2.575h.32c.06.254.147.424.264.512.116.085.314.127.595.127h10.817c.28 0 .48-.042.596-.127.116-.085.204-.255.263-.512h.32v2.575h-.32c-.06-.257-.147-.427-.264-.512-.116-.085-.314-.127-.595-.127h-4.624ZM100.573 74.289h-7.308l-1.2 2.587c-.113.246-.17.418-.17.518 0 .2.199.334.593.399v.32h-3.047v-.32c.273-.048.483-.148.624-.3.145-.153.332-.487.565-1l5.004-10.772c.12-.26.179-.436.179-.53 0-.172-.165-.302-.491-.39v-.32h3.322v.32c-.326.108-.491.246-.491.42 0 .073.06.24.179.497l4.794 10.385c.354.767.587 1.214.7 1.347.114.133.361.246.741.34v.32h-3.243v-.32c.389-.054.582-.201.582-.439 0-.107-.074-.311-.221-.62l-1.118-2.445.006.003Zm-.579-1.297L96.92 66.26l-3.072 6.733h6.147ZM108.063 66.21v10.725c0 .272.043.467.13.583.088.116.259.21.511.275v.32h-2.712v-.32c.261-.068.431-.156.516-.27.083-.112.125-.308.125-.588V65.662c0-.28-.042-.479-.13-.595-.088-.116-.258-.203-.511-.263v-.32h3.923v.32c-.314.108-.471.258-.471.45 0 .133.157.382.471.75l8.235 9.607v-9.944c0-.28-.042-.478-.13-.594-.085-.116-.258-.204-.511-.263v-.32h2.712v.32c-.252.06-.422.147-.51.263-.088.116-.131.314-.131.595V76.94c0 .28.043.475.131.588.085.114.258.204.51.27v.32h-3.154v-.32c.306-.08.459-.216.459-.411 0-.147-.139-.385-.419-.719l-9.044-10.455v-.003ZM22.894 93.436c-.04.119-.08.246-.12.382l-.107.36a.163.163 0 0 0-.017.048c-.003.017-.023.022-.054.022a22.25 22.25 0 0 0-1.072-.022h-.917c-.119 0-.283 0-.49.005-.207.003-.426.006-.659.006-.232 0-.453 0-.663.006-.213.003-.378.005-.497.005-.031 0-.048-.022-.048-.07.009-.071.017-.19.031-.354.012-.164.023-.334.029-.513.008-.178.014-.35.017-.512.002-.164.005-.28.005-.354v-4.777c0-.071 0-.19-.005-.354-.003-.164-.012-.331-.017-.507a23.291 23.291 0 0 0-.029-.506 7.852 7.852 0 0 0-.031-.354c0-.048.026-.07.07-.07.151 0 .33 0 .534.005.204.005.409.008.616.011.207.003.411.006.61.006h.527c.278 0 .607 0 .982-.006.374-.003.737-.008 1.09-.017.062 0 .087.023.07.07-.057.12-.11.253-.162.394a8.177 8.177 0 0 0-.124.371c-.018.04-.052.06-.108.06a14.915 14.915 0 0 0-.772-.037 35.526 35.526 0 0 0-.976-.012h-.663c-.18 0-.31.006-.39.012-.07.008-.11.048-.118.119 0 .022 0 .073-.006.15l-.011.246c-.003.088-.006.17-.006.252v1.936c0 .056.023.085.071.085.048.008.116.014.21.017.09.002.193.005.3.005h.593c.256 0 .5-.002.73-.011.232-.008.42-.017.561-.023.063 0 .088.023.071.071-.04.105-.088.235-.145.394l-.13.37c-.009.04-.031.06-.071.06a14.248 14.248 0 0 0-1.018-.037h-.576c-.199 0-.375.008-.528.023-.025.008-.042.017-.054.022-.011.009-.017.031-.017.071v1.947c0 .12 0 .26.006.42.003.158.011.262.017.31.023.128.116.196.275.204.128.017.272.026.431.032.16.002.326.005.502.005.582 0 1.044-.003 1.385-.011.34-.009.61-.02.808-.037.057 0 .077.028.06.085v-.003Zm-.851-9.796-1.438 1.362a.215.215 0 0 1-.157.07h-.598c-.031 0-.051-.011-.06-.03-.008-.02-.005-.038.012-.055l1.04-1.361c.024-.04.049-.062.072-.07a.168.168 0 0 1 .06-.012h1.018c.096 0 .11.031.048.096h.003ZM32.292 93.425c-.04.119-.08.249-.119.388l-.108.365a.166.166 0 0 0-.017.048c-.003.017-.023.023-.054.023-.351-.017-.709-.023-1.072-.023h-.916c-.12 0-.284 0-.491.006a48.15 48.15 0 0 1-.658.005c-.23 0-.454 0-.664.006-.213.003-.377.006-.496.006-.031 0-.049-.029-.049-.085a8.31 8.31 0 0 0 .043-.448c.011-.164.02-.322.026-.478.002-.156.008-.303.01-.441.004-.14.006-.258.006-.354v-4.778c0-.08 0-.198-.005-.36-.003-.158-.012-.325-.017-.5a12.44 12.44 0 0 0-.031-.501 11.088 11.088 0 0 0-.032-.36c0-.048.02-.07.06-.07h1.115c.062 0 .088.022.07.07-.016.071-.028.187-.036.346-.009.158-.017.325-.023.5-.008.176-.014.346-.017.507-.003.164-.006.286-.006.365v4.767c0 .118 0 .257.006.413.003.156.011.258.017.306.023.127.117.195.275.203.128.017.273.026.431.031a59.892 59.892 0 0 0 1.886-.006c.341-.008.608-.019.81-.036.056 0 .076.028.059.082l-.003.003ZM38.114 94.166c.008.017 0 .031-.017.048a.08.08 0 0 1-.054.023h-1.101c-.017 0-.034-.008-.054-.023-.02-.017-.026-.03-.017-.048.008-.07.017-.184.031-.34a19.516 19.516 0 0 0 .048-1.015c.003-.165.006-.286.006-.366v-4.777c0-.071 0-.187-.006-.346-.002-.158-.01-.328-.017-.506a8.755 8.755 0 0 0-.03-.507 11.05 11.05 0 0 0-.032-.36c0-.047.023-.07.07-.07h1.102c.017 0 .034.008.053.022.02.017.026.032.018.049-.017.079-.029.198-.037.36-.009.158-.017.327-.023.506-.009.178-.014.348-.017.506-.003.159-.006.275-.006.346v4.777c0 .08 0 .201.006.366.003.164.011.333.017.515.008.178.017.345.023.5.008.156.02.27.037.34ZM49.359 85.958a5.31 5.31 0 0 0-.145.377c-.048.138-.09.266-.13.376-.017.04-.051.06-.108.06a6.135 6.135 0 0 0-.275-.018c-.08-.002-.162-.008-.244-.01-.085-.004-.182-.01-.295-.012-.11-.003-.253-.006-.42-.006h-.718c-.215 0-.363.006-.442.011-.08.017-.12.057-.12.12 0 .039 0 .113-.005.22-.003.108-.006.227-.006.36v5.012c0 .08 0 .201.006.365.003.164.011.334.017.515l.026.501c.008.156.02.27.036.34 0 .048-.022.07-.07.07h-1.09c-.065 0-.088-.022-.07-.07.008-.07.016-.184.028-.34a19.516 19.516 0 0 0 .048-1.016c.003-.164.006-.286.006-.365v-5.001c0-.13 0-.252-.006-.36-.003-.107-.006-.186-.006-.232-.008-.062-.048-.104-.119-.119a4.982 4.982 0 0 0-.431-.01h-.706c-.344 0-.619.005-.826.01-.207.009-.414.02-.621.037a.137.137 0 0 1-.085-.03c-.023-.02-.029-.052-.012-.091l.125-.335c.043-.11.085-.232.125-.359.008-.056.045-.082.108-.082.15 0 .286 0 .4.006.116.005.224.005.329.005.105 0 .213 0 .323.006.11.003.236.006.372.006.28.008.533.01.766.01h1.892c.19 0 .38 0 .562-.005.184-.002.345-.005.49-.005.15 0 .273 0 .366-.006.09-.003.179-.006.258-.006.08 0 .165 0 .258-.005.091-.003.21-.006.355-.006.062 0 .085.028.06.082h-.006ZM58.456 93.436c-.04.119-.08.246-.119.382l-.108.36a.163.163 0 0 0-.017.048c-.003.017-.022.022-.054.022a22.25 22.25 0 0 0-1.072-.022h-.916c-.12 0-.284 0-.49.005-.208.003-.426.006-.66.006-.232 0-.453 0-.663.006-.213.002-.377.005-.496.005-.031 0-.048-.022-.048-.07.008-.071.017-.19.03-.354a17.063 17.063 0 0 0 .048-1.025c.004-.164.007-.28.007-.354v-4.777c0-.071 0-.19-.006-.354-.003-.164-.011-.331-.017-.507a13.1 13.1 0 0 0-.063-.86c0-.048.023-.071.071-.071.15 0 .33 0 .534.006.204.005.408.008.615.011.207.003.412.006.61.006h.528c.278 0 .607 0 .981-.006.375-.003.738-.008 1.09-.017.062 0 .088.023.07.07a4.31 4.31 0 0 0-.161.394 8.277 8.277 0 0 0-.125.37c-.017.04-.051.06-.108.06a14.915 14.915 0 0 0-.771-.036 35.541 35.541 0 0 0-.976-.012h-.664c-.179 0-.31.006-.389.012-.07.008-.11.048-.119.118 0 .023 0 .074-.005.15-.003.077-.009.159-.012.247-.003.087-.005.17-.005.252v1.936c0 .056.025.085.07.085.049.008.117.014.21.016.091.003.19.006.301.006h.593c.255 0 .5-.003.732-.011l.562-.023c.065 0 .087.023.07.07-.04.106-.088.236-.144.394-.057.159-.1.283-.13.371-.01.04-.032.06-.072.06a14.252 14.252 0 0 0-1.018-.037h-.576c-.198 0-.374.008-.527.022a.372.372 0 0 0-.054.023c-.012.008-.017.031-.017.07v1.948c0 .119 0 .26.005.419.003.159.012.263.017.311.023.128.117.196.275.204.128.017.273.026.432.031a59.987 59.987 0 0 0 1.886-.006c.34-.008.61-.02.809-.036.056 0 .076.028.06.085l-.004-.003ZM75.963 93.725c.032.04.032.076 0 .107l-.06.048-.731.62-.07.048c-.018.017-.032.023-.05.023-.016 0-.03-.009-.047-.023-.04-.065-.097-.153-.168-.269-.07-.116-.15-.237-.232-.365-.086-.127-.168-.255-.253-.382a13.75 13.75 0 0 0-.221-.322l-1.64-2.319a.16.16 0 0 0-.13-.059l-1.138.011c-.048 0-.07.029-.07.082v1.517c0 .159 0 .343.005.55.003.206.011.39.017.549.008.11.017.215.023.311.008.096.02.198.037.311.008.017 0 .031-.017.048a.08.08 0 0 1-.054.023h-1.101c-.017 0-.034-.008-.054-.023-.02-.017-.025-.03-.017-.048.009-.07.017-.184.031-.34a19.479 19.479 0 0 0 .049-1.015c.002-.165.005-.286.005-.366v-4.777c0-.071 0-.187-.005-.346l-.017-.506a12.425 12.425 0 0 0-.032-.507 11.088 11.088 0 0 0-.03-.36v-.01c0-.04.016-.06.047-.06.12 0 .224 0 .312.006.088.005.17.008.25.011l.247.011c.085.003.187.006.306.006.12 0 .213 0 .281-.006.068-.002.139-.008.21-.011.07-.003.153-.008.247-.011.09-.003.221-.006.388-.006.471 0 .891.065 1.257.192.366.128.675.303.922.527.247.224.434.487.562.795.127.306.19.64.19.996 0 .51-.134.963-.4 1.356-.267.394-.661.682-1.18.866-.057.023-.066.048-.023.071a.606.606 0 0 1 .108.113c.04.051.08.105.119.162l1.137 1.553c.063.088.142.193.233.312.09.119.184.238.275.354.091.116.179.223.264.322.085.1.159.179.221.232l-.003-.002Zm-1.892-5.341c0-.51-.156-.915-.473-1.217-.315-.303-.772-.453-1.37-.453-.16 0-.327.003-.497.011l-.425.023a.46.46 0 0 0-.103.022c-.011.009-.022.037-.03.082 0 .023 0 .071-.007.14a5.259 5.259 0 0 0-.005.22c0 .08 0 .164-.006.252-.003.088-.005.158-.005.215v2.233c0 .065.022.096.07.096h.826c.686 0 1.194-.144 1.526-.436.332-.291.496-.687.496-1.188h.003ZM87.29 85.947c-.017.079-.028.198-.037.36-.008.158-.017.328-.023.506a17.01 17.01 0 0 0-.017.507c-.002.158-.005.274-.005.345v3.631c0 .478-.08.909-.239 1.296a2.704 2.704 0 0 1-.675.98 3.088 3.088 0 0 1-1.052.622c-.412.148-.865.221-1.367.221a4.09 4.09 0 0 1-1.376-.22 3.096 3.096 0 0 1-1.064-.623 2.673 2.673 0 0 1-.68-.98 3.384 3.384 0 0 1-.24-1.296v-3.631c0-.071 0-.187-.005-.346-.003-.158-.011-.328-.017-.506a8.938 8.938 0 0 0-.031-.507c-.011-.158-.023-.277-.028-.36 0-.047.022-.07.07-.07h1.09c.017 0 .034.008.054.023.02.017.025.03.017.048a2.52 2.52 0 0 0-.037.36l-.026.506a17.01 17.01 0 0 0-.017.507c-.002.158-.005.274-.005.345l.011 3.405c0 .79.196 1.404.587 1.845.392.442.956.662 1.694.662.737 0 1.296-.22 1.682-.662.383-.441.576-1.059.576-1.845l.011-3.405c0-.071 0-.187-.006-.346-.005-.158-.01-.328-.017-.506a12.425 12.425 0 0 0-.03-.507 11.088 11.088 0 0 0-.032-.36c0-.047.023-.07.07-.07h1.09c.049 0 .071.023.071.07h.003ZM99.424 93.773a.13.13 0 0 1-.048.108c-.28.135-.66.26-1.146.376a7.053 7.053 0 0 1-1.637.173c-.607 0-1.22-.108-1.764-.323a4.303 4.303 0 0 1-1.421-.903 4.239 4.239 0 0 1-.954-1.381 4.337 4.337 0 0 1-.348-1.755c0-.637.116-1.234.346-1.769.23-.532.547-.993.95-1.381a4.319 4.319 0 0 1 1.418-.903 4.731 4.731 0 0 1 1.762-.323c.264 0 .544.023.845.066.3.045.553.096.76.16a13.526 13.526 0 0 0 1.03.298c.048.017.065.048.048.096l-.323.872c-.025.065-.06.076-.108.037a3.033 3.033 0 0 0-.959-.501 3.97 3.97 0 0 0-1.26-.19c-.456 0-.898.09-1.307.275a3.526 3.526 0 0 0-1.075.747c-.306.314-.55.688-.726 1.118-.176.43-.264.891-.264 1.387 0 .495.09.954.27 1.381.178.427.422.798.728 1.118a3.4 3.4 0 0 0 1.073.753c.408.184.84.275 1.293.275.273 0 .54-.023.803-.066.264-.042.494-.11.695-.198.088-.04.13-.096.13-.167 0-.056 0-.139.006-.246.003-.108.009-.218.012-.334.002-.116.005-.232.005-.345v-.295c0-.158-.002-.35-.011-.58a9.56 9.56 0 0 0-.037-.591c0-.057-.031-.088-.096-.097h-.454c-.088 0-.219 0-.389.006l-.522.011c-.176.003-.337.012-.485.017a5.836 5.836 0 0 1-.292.012c-.065 0-.088-.029-.071-.082.04-.088.085-.201.13-.34.049-.139.091-.272.131-.4.017-.047.051-.07.108-.07.145.008.349.017.615.023.267.008.528.011.786.011h.865c.18 0 .34 0 .491-.006a2.48 2.48 0 0 0 .298-.017c.07 0 .105.037.096.108a6.245 6.245 0 0 0-.037.453c-.008.167-.016.34-.022.515a16.35 16.35 0 0 0-.017.5c-.003.16-.006.295-.006.408 0 .12 0 .264.006.43.003.168.011.34.017.522.008.178.017.356.023.532.008.175.02.334.036.478l.003-.003ZM109.912 91.919c0 .725-.219 1.293-.653 1.704-.436.41-1.021.614-1.753.614h-.669c-.119 0-.221 0-.307-.006-.082-.002-.164-.008-.238-.011l-.247-.011a9.536 9.536 0 0 0-.312-.006c-.119 0-.221 0-.306.006-.085.002-.165.008-.244.011l-.252.011a9.591 9.591 0 0 1-.312.006c-.032 0-.049-.023-.049-.07.009-.072.017-.188.029-.346a19.743 19.743 0 0 0 .048-1.019c.003-.164.006-.28.006-.354v-4.777c0-.071 0-.19-.006-.354-.003-.164-.011-.331-.017-.507-.009-.175-.017-.345-.031-.507-.012-.164-.023-.28-.029-.353 0-.049.023-.071.071-.071.119 0 .221 0 .307.006.085.005.164.008.238.01.076.004.156.01.238.012.085.003.187.006.307.006.119 0 .221 0 .306-.006.085-.005.164-.008.247-.011.079-.003.161-.009.246-.011.086-.003.185-.006.307-.006.797 0 1.41.198 1.838.591.426.394.641.932.641 1.608 0 .215-.031.413-.096.592-.063.178-.145.34-.239.478a1.686 1.686 0 0 1-.323.354 1.833 1.833 0 0 1-.346.226c-.031.017-.045.029-.043.043.003.011.023.022.054.03.185.057.372.145.562.27.193.124.363.274.516.453.151.178.275.387.372.622.096.235.145.495.145.784l-.006-.011Zm-1.677-3.798c0-.44-.139-.782-.419-1.033-.281-.252-.704-.377-1.268-.377-.105 0-.222 0-.355.006-.131.002-.238.011-.318.017-.071.008-.11.048-.119.119 0 .022 0 .073-.006.15a8.081 8.081 0 0 0-.011.246c-.003.088-.006.17-.006.252v1.958c0 .057.023.085.071.085a1.9 1.9 0 0 0 .324.023h.42c.51 0 .919-.133 1.228-.4.306-.265.459-.613.459-1.044v-.002Zm.576 3.798c0-.501-.173-.892-.516-1.166-.343-.275-.851-.413-1.521-.413h-.97c-.048 0-.071.03-.071.096v1.995a10.717 10.717 0 0 0 .023.73c.023.128.116.196.275.204.128.017.273.026.431.031.159.003.327.006.503.006.598 0 1.055-.119 1.37-.36.315-.237.473-.614.473-1.123h.003ZM120.042 86.04c-.04.049-.111.145-.21.286-.099.145-.207.3-.318.467-.11.167-.221.334-.329.501-.108.167-.19.298-.247.394l-1.483 2.4a.47.47 0 0 0-.06.204v2.15c0 .08 0 .202.006.366.003.164.011.334.017.515l.025.501c.009.156.02.269.037.34.017.048-.008.07-.071.07h-1.1c-.048 0-.071-.022-.071-.07.008-.071.017-.184.031-.34.011-.156.023-.32.031-.495.009-.176.014-.346.017-.507.003-.164.006-.289.006-.376V90.26a.437.437 0 0 0-.037-.204l-1.628-2.522c-.048-.07-.111-.164-.193-.28-.08-.116-.162-.238-.247-.365-.085-.128-.164-.247-.247-.36a5.408 5.408 0 0 0-.178-.238c-.057-.056-.057-.096 0-.118l.921-.527c.057-.031.097-.028.12.011.031.071.082.173.15.306.068.13.145.269.227.413.085.145.164.28.247.414.079.13.144.232.19.305l1.256 1.996c.015.022.029.037.043.042.011.003.026-.011.043-.042l1.007-1.673c.048-.07.11-.173.184-.306.077-.13.153-.269.233-.413.079-.144.153-.28.221-.413.068-.133.122-.232.162-.306a.636.636 0 0 1 .042-.07c.011-.018.037-.023.077-.023h1.089c.04 0 .065.014.079.042.012.028 0 .065-.042.113v-.003ZM123.684 82.052s-45.32.9-108.371 0h108.371ZM15.316 82.052s28.717-2.137 108.372 0H15.316ZM76.435 24.573a14.675 14.675 0 0 0-7.08-1.97c-8.36-.167-17.514 7.617-14.67 19.258l1.306-.028c-.165-.784-.31-1.88-.31-2.715 0-6.572 5.342-11.901 11.929-11.901 2.46 0 4.743.741 6.64 2.015l2.185-4.659Z" fill="#000"/><path d="m74.66 12.527-1.969 5.68.987-5.906a20.1 20.1 0 0 0-1.549-.264l-.695 4.99v-5.069a21.458 21.458 0 0 0-2.099-.104c-8.958 0-16.609 5.578-19.656 13.444l2.692 2.825-3.032-1.874a20.958 20.958 0 0 0-1.07 6.623c0 .187.006.373.012.56h3.18l-3.149.71c.102 1.693 1.214 7.054 1.694 8.616l3.846-.894c-.394-1.367-.66-3.017-.66-4.512 0-8.595 7.213-15.756 15.828-15.756 2.826 0 5.353.71 7.64 2.02l4.365-8.34c-1.82-1.158-4.218-2.186-6.363-2.743l-.002-.006ZM56.414 42.19s18.57-7.156 21.466-12.383c0 0 .286-.298.408.268.12.566 1.821 14.107 1.753 19.567l-1.288-.94-.167-5.76-7.174-2.737 2.757 3.886 3.3 1.223.964 7.79s.579 4.633 2.425 7.154c0 0 .253.346.136.564-.116.218-.55-.012-.78-.116-.23-.102-10.745-4.78-14.876-9.7 0 0 2.04-3.75-1.302-7.636l-7.619 3.954s-.403.218-.287-.298c.117-.515 1.703-.62.287-4.837h-.003Z" fill="#000"/><path d="M75.431 30.939c-1.483-1.455-4.484-2.944-7.642-2.944-6.283 0-11.375 5.08-11.375 11.35 0 .807.06 1.469.221 2.23 1.95-.792 14.559-6.476 18.797-10.636Z" fill="#000"/></svg>