<svg width="180" height="133" fill="none" xmlns="http://www.w3.org/2000/svg"><circle cx="96.5" cy="66.5" r="66.5" fill="#922630"/><path d="M98.258 43.702s-46.771 40.57-47.895 45.576c0 0 1.75 1.044 3.507 3.683 2.037 3.047 4.766 4.456 6.3 3.862 2.21-.858 2.224-2.417 2.224-2.417l30.169 15.34s11.606-2.074 37.231-22.685l7.106-7.795-38.65-35.572.008.008Z" fill="#CDCFD5"/><path d="M50.478 44.417s4.586 4.226 11.045 1.594l20.325-8.424s7.056-3.92 13.112 1.459c0 0-7.877 13.788 4.226 17.836 0 0 11.419 7.037 17.114 13.509 2.866 3.254 9.144 8.954 12.082 12.093.785.844 2.448 2.16 3.226 3.376 1.072 1.68 3.074 5.306-1.224 8.038 0 0-2.974 2.703-7.769-1.137-4.45-3.561-11.995-11.485-16.69-15.319-.252-.207-1.483-.622.058 1.31 1.908 2.38 11.117 11.113 11.117 11.113s3.463 3.096 4.197 4.54c.648 1.267 1.541 3.984-1.087 6.48 0 0-3.766 3.819-8.87-.229L99.755 90.258s-2.484-2.074-.634.73c0 0 11.751 10.612 12.082 12.043.95 4.083-2.484 8.753-8.46 5.542l-13.55-9.726s-1.304-.358-.353.83c0 0 12.621 8.617 13.464 9.49 1.094 1.151-2.47 5.463-8.388 2.81-8.439-3.776-25.575-10.82-33.747-15.154-2.873-1.523-8.69-5.356-10.893-7.094 0 0-8.828-7.195-21.924-9.09l14.55-38.876 8.569 2.647.007.007Z" fill="#E4E4E4"/><path d="M59.536 98.811s3.233-3.29 5.12-4.39c3.815-2.232 9.762 1.136 9.654 4.447 0 0 .944 3.383-5.27 7.424-1.145.744-4.709 2.417-9.029-2.124 0 0-2.541-2.99-.475-5.357Z" fill="#414141"/><path d="M70.58 107.421c.21-2.424 4.177-6.422 5.868-7.802 1.988-1.624 9.13-2.517 9.008 4.899 0 0-1.08 5.07-5.292 7.509-2.002 1.158-10.016.529-9.576-4.613l-.007.007ZM86.549 105.719c1.41-1.709 7.358-1.866 6.81 3.49-.208 2.031-1.691 5.228-4.88 6.172-2.32.687-7.92-1.609-6.524-3.812.965-1.516 1.397-1.981 4.594-5.85Z" fill="#414141"/><path d="M58.4 99.34s3.232-3.29 5.119-4.39c3.816-2.232 9.763 1.136 9.655 4.447 0 0 .943 3.383-5.27 7.424-1.153.743-4.71 2.417-9.03-2.124 0 0-2.541-2.99-.475-5.357Z" fill="#F3FBF9"/><path d="M68.07 67.694s7.23 7.33 17.943-10.434c0 0 4.233 2.089 11.606-1.008l1.714-2.031s-14.156-.272-14.127 0c.03.279-17.136 13.473-17.136 13.473Z" fill="#414141"/><path d="M69.444 107.958c.209-2.425 4.176-6.422 5.868-7.803 1.987-1.623 9.13-2.517 9.007 4.899 0 0-1.08 5.071-5.292 7.509-2.002 1.159-10.015.53-9.576-4.612l-.007.007ZM85.408 106.249c1.411-1.709 7.358-1.867 6.811 3.49-.209 2.031-1.692 5.227-4.881 6.171-2.319.687-7.92-1.609-6.524-3.811.965-1.516 1.397-1.981 4.594-5.85Z" fill="#F3FBF9"/><path d="M49.824 93.311c.648-1.044 1.62-2.002 3.463-3.125 1.116-.68 3.996-.637 5.573.636 1.13.916 3.327 3.004 2.578 4.527-1.412 2.89-3.687 6.758-7.323 5.099 0 0-7.185-2.481-4.298-7.13l.007-.007Z" fill="#414141"/><path d="M48.695 93.283c.648-1.044 1.62-2.003 3.463-3.125 1.116-.68 3.996-.637 5.573.636 1.13.916 3.327 3.004 2.578 4.527-1.419 2.89-3.687 6.758-7.323 5.099 0 0-7.185-2.482-4.298-7.13l.007-.007Z" fill="#F3FBF9"/><path d="M53.712 40.283 39.643 89.221 15.43 81.36 32.89 31.91l20.822 8.374Z" fill="#4D7E9C"/><path d="M51.638 91.938s-1.65 3.269.324 4.978c0 0 2.354 3.654 6.48-1.373.684-.837-.39-2.604-2.578-3.49 0 0-2.045-1.087-4.226-.108v-.007ZM61.84 99.47s1.815-2.961 3.075-3.297c1.296-.344 5.018.042 6.12 3.861.187.658-.943 1.838-1.469 2.468-.965 1.172-3.283 2.817-5.53 1.208 0 0-2.944-1.495-2.195-4.24ZM74.133 103.738c.454-.872 1.966-2.367 3.16-2.338 1.973.05 6.286 2.052 4.738 4.763 0 0-1.332 2.295-3.593 2.589 0 0-3.967.879-4.924-2.811-.144-.551.36-1.695.619-2.203ZM83.743 110.518c.381 1.459 2.606 3.197 4.24 2.059.663-.464 2.117-2.102 2.283-2.889.28-1.33-2.016-4.498-4.687-2.152-.627.557-2.052 2.174-1.843 2.982h.007Z" fill="#fff"/><path d="M104.443 38.916s-7.797-3.56-14.796 1.853L78.43 45.796s-4.63.909-6.754 6.637l-5.969 9.175s-4.673 6.222 6.588 6.701c0 0 6.718-1.88 13.075-11.414l.13-1.301s.518 1.695 4.277 1.509c0 0 3.967-.83 9.446-1.903 0 0 .72 1.138 5.422 4.527 0 0 11.534 7.967 13.968 11.743l13.37 13.037s2.412-.622 9.245-8.732l13.32-2.903-8.77-37.917s-21.369 5.37-27.424 5.213l-13.918-1.252h.007Z" fill="#F3FBF9"/><path d="m141.02 34.719 12.384 43.402 19.663-4.877-13.111-44.003-18.936 5.478Z" fill="#4D7E9C"/><path d="M68.672 57.046s4.687-1.123 5.616 2.124c0 0-2.059 5.314-3.744 6.343-1.303.794-5.277.687-5.796-1.416 0 0-.223-2.13 3.917-7.044l.007-.007Z" fill="#fff"/><path d="M108.938 62.831s7.891 4.442 17.15-1.194c0 0-6.761 7.009-14.206 3.462l-2.944-2.268Z" fill="#414141"/></svg>