<svg width="133" height="150" fill="none" xmlns="http://www.w3.org/2000/svg"><circle cx="66.5" cy="73.5" r="66.5" fill="#922630"/><g clip-path="url(#a)"><path d="M108.417 131.08a10.58 10.58 0 0 0-10.329 8.242 5.527 5.527 0 0 0-3.782-1.488c-1.21 0-2.33.387-3.24 1.043.027-.257.04-.519.04-.784 0-4.168-3.389-7.548-7.571-7.548-.22 0-.436.009-.651.028v-26.255L72.682 92.946 58.931 110.98v14.597c-.22-.013-.442-.021-.666-.021-5.814 0-10.528 4.699-10.528 10.496 0 .178.005.356.014.533a8.852 8.852 0 0 0-4.76.012 10.66 10.66 0 0 0-10.444-8.466c-5.89 0-10.666 4.76-10.666 10.632 0 .39.022.775.063 1.153a5.276 5.276 0 0 0-2.665-.719c-2.916 0-5.279 2.356-5.279 5.262 0 2.907 2.363 5.263 5.28 5.263h93.093v-.037c1.277 0 6.627-2.227 6.627-8.054s-4.739-10.552-10.584-10.552l.001.001Z" fill="#F4F4F4"/><path d="M65.3 92.836c-7.82 4.146-9.253 15.851-4.44 23.914 1.33-6.292 4.461-9.694 4.461-9.694-1.978 13.572 4.434 21.722 4.434 21.722 12.287-12.095 7.178-26.521 7.178-26.521 3.787 5.648 2.976 10.921 2.976 10.921 8.694-11.533-1.346-20.104-1.346-20.104-8.808-1.96-13.261-.238-13.261-.238h-.001Z" fill="#E0E0E0"/><path d="M67.975 91.933c-4.095 3.129-2.243 8.333-2.243 8.333 1.536-3.673 2.601-4.644 2.601-4.644-1.74 6.736 2.438 12.945 2.438 12.945 7.082-6.719 3.803-13.285 3.803-13.285 2.84 1.301 2.773 5.043 2.773 5.043 1.946-4.668-1.279-8.19-1.279-8.19-3.685-.459-8.092-.204-8.092-.204l-.001.002Z" fill="#A9A9A9"/><path d="M71.452 68.245H56.571c-5.404 0-10.04 3.843-11.024 9.14L42.04 96.217c-.103.559.517.97.993.656l28.42-18.687v-9.942h-.002Z" fill="#888F9E"/><path d="M61.77 79.07c-1.287-5.966-8.787-9.693-8.787-9.693 4.006 12.865-4.278 20.31-10.365 23.742l-.577 3.097c-.103.56.517.97.993.657L62.535 84.05c-.152-1.9-.467-3.597-.765-4.98Z" fill="#0E1523"/><path d="M71.452 68.245h14.881c5.404 0 10.04 3.843 11.024 9.14l3.505 18.833a.647.647 0 0 1-.992.656L71.45 78.187v-9.942h.002Z" fill="#888F9E"/><path d="M99.873 96.874a.647.647 0 0 0 .992-.656L97.36 77.384a11.124 11.124 0 0 0-1.706-4.177c2.764 13.831.78 19.624-5.37 15.656-6.15-3.969-7.685-7.92-7.07-12.485-2.572 1.85-4.306 3.894-5.361 6.018l22.02 14.478Z" fill="#0E1523"/><path d="M65.433 91.732h12.04C84.169 85.059 95 63.766 95 40.518 95 12.842 71.453 0 71.453 0S47.906 12.842 47.906 40.519c0 23.248 10.482 44.191 17.526 51.214v-.001Z" fill="#7C7C7C"/><path d="M78.824 78.785c-6.556 7.906-11.12 10.07-19.13 5.204 1.982 3.337 3.968 5.979 5.738 7.743h12.04c6.694-6.673 17.526-27.966 17.526-51.214C95 12.842 71.453 0 71.453 0c26.413 18.518 18.838 64.497 7.371 78.785Z" fill="#4F4F4F"/><path d="M71.647 46.703c7.452 0 13.494-6.024 13.494-13.453 0-7.43-6.042-13.453-13.494-13.453-7.453 0-13.495 6.023-13.495 13.453s6.042 13.453 13.495 13.453Z" fill="#0A111E"/><path d="M70.791 46.193c7.453 0 13.494-6.023 13.494-13.453s-6.041-13.453-13.494-13.453c-7.452 0-13.494 6.023-13.494 13.453s6.042 13.453 13.494 13.453Z" fill="#4D7E9C"/><path d="M70.792 22.393a.971.971 0 0 0 .973-.97.971.971 0 0 0-.973-.97.971.971 0 0 0-.972.97c0 .536.435.97.972.97ZM71.687 44.425a.968.968 0 0 0-.523-1.268.974.974 0 0 0-1.272.522.968.968 0 0 0 .523 1.268.974.974 0 0 0 1.272-.522ZM59.443 33.71a.971.971 0 0 0 .972-.97.971.971 0 0 0-.972-.97.971.971 0 0 0-.973.97c0 .535.436.97.973.97ZM83.046 33.111a.968.968 0 0 0-.53-1.265.974.974 0 0 0-1.269.527.969.969 0 0 0 .53 1.266.974.974 0 0 0 1.269-.528ZM63.453 24.053c.38.379.38.993 0 1.372a.975.975 0 0 1-1.376 0 .968.968 0 0 1 0-1.372.975.975 0 0 1 1.376 0ZM79.506 40.056a.975.975 0 0 0-1.376 0 .968.968 0 0 0 0 1.371.975.975 0 0 0 1.376 0 .968.968 0 0 0 0-1.371ZM62.08 40.056a.975.975 0 0 1 1.375 0c.38.378.38.992 0 1.371a.975.975 0 0 1-1.376 0 .968.968 0 0 1 0-1.371ZM78.132 24.053a.968.968 0 0 0 0 1.372.975.975 0 0 0 1.376 0 .968.968 0 0 0 0-1.372.975.975 0 0 0-1.376 0Z" fill="#999694"/><path d="M77.617 39.372a8.976 8.976 0 0 0 0-12.721c-3.524-3.513-9.237-3.513-12.76 0a8.976 8.976 0 0 0 0 12.721c3.523 3.513 9.236 3.513 12.76 0Z" fill="#BFD1EB"/><path d="M62.213 33.013c0-4.969 4.04-8.996 9.023-8.996 1.634 0 3.167.434 4.489 1.191a8.998 8.998 0 0 0-4.934-1.463c-4.983 0-9.023 4.027-9.023 8.995a8.987 8.987 0 0 0 4.534 7.804 8.98 8.98 0 0 1-4.09-7.531Z" fill="#5D8DD4"/><path d="M63.767 35.544c0-5.417 4.405-9.81 9.84-9.81.106 0 .212.003.318.006a7.795 7.795 0 0 0-2.927-.567c-4.305 0-7.795 3.479-7.795 7.77 0 1.032.203 2.018.569 2.919a10.452 10.452 0 0 1-.005-.318Z" fill="#8EB2E5" style="mix-blend-mode:screen"/><path d="M78.563 93.074H64.342a1.344 1.344 0 0 1-1.346-1.342c0-.742.602-1.342 1.346-1.342h14.221c.744 0 1.346.6 1.346 1.342 0 .742-.603 1.342-1.346 1.342Z" fill="#62656B"/><path d="M78.563 90.39h-.23a1.344 1.344 0 0 1-.999 2.242h-13.99c.246.271.602.442.998.442h14.222c.744 0 1.346-.601 1.346-1.342 0-.742-.603-1.342-1.346-1.342h-.001Z" fill="#7C7C7C"/></g><defs><clipPath id="a"><path fill="#fff" transform="translate(14)" d="M0 0h105.001v149.723H0z"/></clipPath></defs></svg>