<svg width="202" height="34" fill="none" xmlns="http://www.w3.org/2000/svg"><path d="m163.191 32.435 15.273-15.44.449-.455-.449-.454L163.191.646h22.177L201.09 16.54l-15.722 15.895h-22.177Z" stroke="#922630"/><path opacity=".8" d="m129.3 32.435 15.273-15.44.45-.455-.45-.454L129.3.646h22.177L167.2 16.54l-15.723 15.895H129.3Z" stroke="#922630"/><path opacity=".7" d="M117.856 0H93.861l16.362 16.54-16.362 16.54h23.995l16.362-16.54L117.856 0Z" fill="#922630"/><path opacity=".5" d="m73.678 16.953.445-.453-.445-.453L58.541.647h21.97L96.095 16.5 80.512 32.354h-21.97l15.136-15.401Z" stroke="#922630"/><path opacity=".3" d="m39.678 16.953.445-.453-.445-.453L24.541.647h21.97L62.095 16.5 46.512 32.354h-21.97l15.136-15.401Z" stroke="#922630"/><path d="M12.783 0H-11L5.217 16.5-11 33h23.783L29 16.5 12.783 0Z" fill="#922630"/></svg>