<svg width="142" height="133" fill="none" xmlns="http://www.w3.org/2000/svg"><circle cx="71.5" cy="66.5" r="66.5" fill="#922630"/><g clip-path="url(#a)"><path d="M85.782 43.472h-2.898C82.884 38.24 77.561 34 71 34c-6.562 0-11.885 4.24-11.885 9.472h-2.898c-5.968-5.833-14.128-9.442-23.147-9.442C14.806 34.03 0 48.796 0 67.015S14.806 100 33.07 100c9.127 0 17.389-3.69 23.376-9.651h29.11A33.013 33.013 0 0 0 108.929 100C127.192 100 142 85.232 142 67.015c0-18.218-14.808-32.985-33.071-32.985-9.015 0-17.178 3.609-23.147 9.444v-.002ZM33.07 95.611c-15.834 0-28.672-12.803-28.672-28.596s12.838-28.598 28.672-28.598c15.834 0 28.67 12.803 28.67 28.596S48.902 95.61 33.07 95.61v.002ZM137.6 67.013c0 15.793-12.837 28.594-28.67 28.594-15.832 0-28.67-12.802-28.67-28.594 0-15.791 12.834-28.598 28.67-28.598 15.836 0 28.67 12.805 28.67 28.596v.002Z" fill="#7C7C7C"/><path d="M4.398 67.015c0 15.793 12.837 28.596 28.673 28.596 15.835 0 28.67-12.803 28.67-28.596 0-15.794-12.84-28.598-28.672-28.598-15.833 0-28.67 12.803-28.67 28.598Zm54.995 0c0 14.501-11.785 26.256-26.324 26.256-14.54 0-26.324-11.757-26.324-26.256 0-14.5 11.783-26.258 26.324-26.258 14.54 0 26.324 11.756 26.324 26.256v.002Z" fill="#F3FBF9"/><path d="M6.746 67.015c0 14.501 11.785 26.256 26.324 26.256 14.54 0 26.324-11.757 26.324-26.256 0-14.5-11.785-26.258-26.324-26.258-14.539 0-26.324 11.757-26.324 26.258Zm42.832 0c0 9.094-7.394 16.463-16.508 16.463-9.114 0-16.509-7.37-16.509-16.463 0-9.094 7.394-16.465 16.51-16.465 9.115 0 16.507 7.371 16.507 16.465Z" fill="#F3FBF9"/><path d="M16.559 67.015c0 9.094 7.393 16.463 16.509 16.463 9.115 0 16.507-7.37 16.507-16.463 0-9.094-7.394-16.465-16.507-16.465-9.114 0-16.51 7.371-16.51 16.465Zm22.508 0c0 3.306-2.683 5.986-6 5.986-3.316 0-6.003-2.68-6.003-5.986 0-3.306 2.686-5.986 6.004-5.986 3.318 0 6 2.678 6 5.986Zm-3.602-13.389a.664.664 0 0 1 .096.607l-.808 2.373a.661.661 0 0 1-.585.446 14.704 14.704 0 0 0-10.61 5.493.664.664 0 0 1-.726.216l-2.339-.79a.674.674 0 0 1-.42-.854l.093-.174a18.394 18.394 0 0 1 14.754-7.595c.218 0 .418.103.545.279Z" fill="#4D7E9C"/><path d="m20.168 60.941-.093.174c-.12.352.07.734.42.853l2.339.791c.257.09.552.002.726-.216a14.698 14.698 0 0 1 10.61-5.493.662.662 0 0 0 .584-.445l.809-2.374a.658.658 0 0 0-.097-.606.671.671 0 0 0-.545-.279 18.391 18.391 0 0 0-14.753 7.595ZM27.066 67.015c0 3.306 2.686 5.986 6.004 5.986 3.318 0 6-2.68 6-5.986 0-3.306-2.684-5.986-6-5.986-3.317 0-6.004 2.678-6.004 5.986ZM80.258 67.011c0 15.794 12.836 28.595 28.67 28.595 15.834 0 28.67-12.803 28.67-28.594 0-15.792-12.837-28.596-28.668-28.596-15.83 0-28.67 12.804-28.67 28.596h-.002Zm54.992 0c0 14.504-11.783 26.256-26.32 26.256S82.602 81.513 82.602 67.012c0-14.502 11.785-26.256 26.328-26.256 14.542 0 26.32 11.756 26.32 26.255Z" fill="#F3FBF9"/><path d="M82.602 67.011c0 14.503 11.785 26.256 26.327 26.256 14.543 0 26.321-11.754 26.321-26.256 0-14.501-11.784-26.256-26.321-26.256S82.602 52.512 82.602 67.011Zm42.831 0c0 9.094-7.39 16.465-16.506 16.465-9.115 0-16.51-7.37-16.51-16.465 0-9.093 7.393-16.462 16.51-16.462 9.118 0 16.506 7.37 16.506 16.462Z" fill="#F3FBF9"/><path d="M92.418 67.012c0 9.093 7.393 16.464 16.511 16.464 9.117 0 16.505-7.37 16.505-16.464 0-9.094-7.39-16.463-16.505-16.463-9.116 0-16.511 7.37-16.511 16.463Zm22.514 0c0 3.307-2.691 5.987-6.003 5.987-3.313 0-6.005-2.68-6.005-5.987 0-3.308 2.69-5.986 6.005-5.986 3.314 0 6.003 2.68 6.003 5.986Zm-3.608-13.389a.663.663 0 0 1 .095.61l-.807 2.374a.661.661 0 0 1-.585.445 14.682 14.682 0 0 0-10.608 5.493.659.659 0 0 1-.724.212l-2.342-.79a.674.674 0 0 1-.418-.852l.093-.175a18.393 18.393 0 0 1 14.753-7.597c.218 0 .42.105.547.28h-.004Z" fill="#4D7E9C"/><path d="m96.023 60.942-.093.175a.675.675 0 0 0 .418.852l2.343.79c.255.09.548.004.724-.212a14.674 14.674 0 0 1 10.608-5.493.664.664 0 0 0 .585-.446l.807-2.373a.68.68 0 0 0-.642-.89 18.393 18.393 0 0 0-14.753 7.597h.003ZM102.926 67.011c0 3.308 2.69 5.988 6.005 5.988 3.314 0 6.003-2.68 6.003-5.988 0-3.307-2.69-5.986-6.003-5.986s-6.005 2.68-6.005 5.986Z" fill="#F3FBF9"/></g><defs><clipPath id="a"><path fill="#fff" transform="translate(0 34)" d="M0 0h142v66H0z"/></clipPath></defs></svg>